<?xml version="1.0" ?><!DOCTYPE svg  PUBLIC '-//W3C//DTD SVG 1.1//EN'  'http://www.w3.org/Graphics/SVG/1.1/DTD/svg11.dtd'><svg id="Lager_1" style="enable-background:new 0 0 128 128;" version="1.1" viewBox="0 0 128 128" xml:space="preserve" xmlns="http://www.w3.org/2000/svg" xmlns:xlink="http://www.w3.org/1999/xlink"><g><path d="M89,46c-4.5-4.5-10.5-7-16.9-7c-5.6,0-11.1,2-15.4,5.6l-1.6,1.3c-0.8-0.1-1.7-0.2-2.5-0.2h-0.2h-0.1   c-5.4,0.1-10.5,2.2-14.3,6c-3.9,3.9-6,9-6,14.5s2.1,10.7,6,14.5c3.9,3.9,9.1,6,14.6,6h17.9c0.5,0,1,0,1.5,0h0.1h0.4   c1.6,0,3.2-0.2,4.8-0.6c1-0.2,2.1-0.5,3.1-0.9c3.3-1.2,6.2-3.1,8.6-5.5C98.3,70.6,98.3,55.4,89,46z M52.6,81.1   c-4,0-7.7-1.5-10.5-4.4c-5.8-5.8-5.8-15.2,0-21c2.8-2.8,6.5-4.3,10.5-4.4h0.1c0.7,0,1.5,0.1,2.2,0.2c0.8,0.1,1.5,0.3,2.3,0.5   c1.4,0.4,2.7,1.1,3.9,1.9c0.6,0.4,1.1,0.8,1.6,1.3c0.2,0.1,0.3,0.3,0.5,0.4l1,1l4.9,4.9c0.8,0.8,0.8,2.1,0,2.9   c-0.4,0.4-0.9,0.6-1.5,0.6c-0.5,0-1.1-0.2-1.5-0.6l-5-5l-1-1c-0.2-0.2-0.3-0.3-0.5-0.5c-1.4-1.2-3.2-2.1-5-2.4   c-0.7-0.1-1.3-0.2-2-0.2h-0.3c-2.7,0.1-5.3,1.2-7.3,3.1c-4.2,4.2-4.2,10.9,0,15.1c2,2,4.7,3.1,7.6,3.1h1.9l1.7,1.7   c0.9,0.9,1.8,1.7,2.8,2.5L52.6,81.1L52.6,81.1z M84.9,75.8c-1.9,1.9-4.1,3.3-6.6,4.2c-0.8,0.3-1.5,0.5-2.3,0.7   c-1.2,0.3-2.4,0.4-3.7,0.4H72c-4.3,0-8.3-1.5-11.6-4.1c-0.4-0.4-0.9-0.8-1.3-1.2L58.3,75l-2.1-2.1l-5.6-5.6c-0.8-0.8-0.8-2.1,0-2.9   c0.4-0.4,0.9-0.6,1.5-0.6c0.5,0,1.1,0.2,1.5,0.6l8.5,8.5l0,0c0.8,0.8,1.7,1.5,2.6,2.1c2.2,1.4,4.7,2.1,7.4,2.1   c1.2,0,2.4-0.1,3.5-0.4c0.7-0.2,1.4-0.4,2-0.7c1.6-0.7,3.1-1.7,4.5-3c5.5-5.5,5.5-14.4,0-19.9c-2.8-2.7-6.4-4.1-10-4.1   c-2.7,0-5.5,0.8-7.9,2.4c-1.2-0.9-2.5-1.7-3.8-2.3c3.4-2.8,7.5-4.2,11.7-4.2c4.7,0,9.3,1.8,12.9,5.3C92.1,57.2,92.1,68.7,84.9,75.8   z" style="fill:#FFFFFF;"/></g><g><g><g><circle cx="64" cy="64" r="50" style="fill:#9CDAF0;"/></g></g><g><g><path d="M69,76.3c6.2-0.7,12.9-3,12.9-13.8c0-3.1-1.1-5.6-2.8-7.5c0.3-0.7,1.2-3.5-0.3-7.4     c0,0-2.3-0.7-7.6,2.8c-2.3-0.6-4.8-1-7.1-1c-2.4,0-4.9,0.4-7.1,1c-5.4-3.6-7.7-2.8-7.7-2.8c-1.5,3.9-0.6,6.6-0.3,7.4     c-1.8,1.9-2.8,4.4-2.8,7.5c0,10.8,6.6,13,12.9,13.8c-0.8,0.7-1.5,2-1.8,3.8c-1.6,0.7-5.7,2-8.2-2.3c0,0-1.5-2.7-4.3-2.8     c0,0-2.8-0.1-0.2,1.7c0,0,1.9,0.9,3.1,4.1c0,0,1.7,5.4,9.5,3.7v4.8c0,0.7-0.6,1.6-2,1.4C44,86.9,36,76.3,36,64     c0-15.5,12.5-28,28-28c15.4,0,28,12.5,28,28c0,12.4-8,22.8-19.1,26.6c-1.4,0.3-2-0.6-2-1.4v-7.8C70.9,78.8,70,77.1,69,76.3     L69,76.3z M96,64c0-17.7-14.3-32-32-32S32,46.3,32,64c0,17.6,14.3,32,32,32S96,81.7,96,64L96,64z" style="fill:#201F1F;"/></g></g></g></svg>