<?xml version="1.0" ?><svg id="Layer_1" style="enable-background:new 0 0 128 128;" version="1.1" viewBox="0 0 128 128" xml:space="preserve" xmlns="http://www.w3.org/2000/svg" xmlns:xlink="http://www.w3.org/1999/xlink"><style type="text/css">
	.st0{fill:#261300;}
	.st1{fill:#FF7F18;}
</style><g><g><path class="st0" d="M64,111.2C38,111.2,16.8,90,16.8,64S38,16.8,64,16.8S111.2,38,111.2,64S90,111.2,64,111.2z"/><path class="st1" d="M64,19.7c24.4,0,44.3,19.9,44.3,44.3S88.4,108.3,64,108.3S19.7,88.4,19.7,64S39.6,19.7,64,19.7 M64,14    c-27.6,0-50,22.4-50,50s22.4,50,50,50s50-22.4,50-50S91.6,14,64,14L64,14z"/></g><path class="st1" d="M77.6,54.7c0-0.3,0.1-0.4,0.4-0.4h5.7c0.3,0,0.4,0.1,0.4,0.4v28.9c0,0.3-0.1,0.4-0.4,0.4h-5.7   c-0.4,0-0.5-0.2-0.5-0.5L77.6,54.7L77.6,54.7L77.6,54.7z M77.2,46.4c0-2.3,1.6-3.7,3.7-3.7c2.2,0,3.7,1.5,3.7,3.7   c0,2.4-1.6,3.7-3.8,3.7C78.7,50.1,77.2,48.8,77.2,46.4z M60.7,66.7c-1-4.1-3.4-12.9-4.4-17.2h-0.1c-0.8,4.3-2.7,11.5-4.2,17.2H60.7   z M50.6,72.7l-2.9,11c-0.1,0.3-0.2,0.4-0.5,0.4h-5.4c-0.4,0-0.4-0.1-0.4-0.5l10.4-36.3c0.2-0.7,0.3-1.2,0.4-3   c0-0.3,0.1-0.4,0.3-0.4h7.7c0.3,0,0.4,0.1,0.4,0.4l11.6,39.5c0.1,0.3,0,0.5-0.3,0.5h-6.1c-0.3,0-0.5-0.1-0.5-0.3l-3-11H50.6   L50.6,72.7z"/></g></svg>