<?xml version="1.0" ?><svg id="Layer_1" style="enable-background:new 0 0 128 128;" version="1.1" viewBox="0 0 128 128" xml:space="preserve" xmlns="http://www.w3.org/2000/svg" xmlns:xlink="http://www.w3.org/1999/xlink"><style type="text/css">
	.st0{fill:#26000F;}
	.st1{fill:#FF408C;}
</style><g><g><path class="st0" d="M64,111.2C38,111.2,16.8,90,16.8,64S38,16.8,64,16.8S111.2,38,111.2,64S90,111.2,64,111.2z"/><path class="st1" d="M64,19.7c24.4,0,44.3,19.9,44.3,44.3S88.4,108.3,64,108.3S19.7,88.4,19.7,64S39.6,19.7,64,19.7 M64,14    c-27.6,0-50,22.4-50,50s22.4,50,50,50s50-22.4,50-50S91.6,14,64,14L64,14z"/></g><path class="st1" d="M75.4,59.7c-0.5-0.3-1.3-0.4-2.1-0.4c-4.6,0-7.9,3.6-7.9,9.5c0,6.7,3.3,9.5,7.4,9.5c0.9,0,1.8-0.1,2.5-0.4   V59.7z M73.5,53.8c0.8,0,1.2,0,1.9,0.1v-9.5c0-0.3,0.2-0.4,0.4-0.4h5.8c0.3,0,0.4,0.1,0.4,0.3v33.5c0,1,0,2.3,0.2,3.6   c0,0.3-0.1,0.3-0.3,0.4c-3.1,1.5-6.3,2.1-9.4,2.1c-7.9,0-13.6-4.9-13.6-14.9C58.7,60.5,64.4,53.8,73.5,53.8L73.5,53.8z M52.4,83   c0,0.4-0.1,0.5-0.5,0.5h-5.5c-0.4,0-0.5-0.2-0.5-0.5V44.5c0-0.4,0.2-0.5,0.5-0.5H52c0.3,0,0.4,0.1,0.4,0.4V83z"/></g></svg>