<?xml version="1.0" ?><svg id="Layer_1" style="enable-background:new 0 0 128 128;" version="1.1" viewBox="0 0 128 128" xml:space="preserve" xmlns="http://www.w3.org/2000/svg" xmlns:xlink="http://www.w3.org/1999/xlink"><style type="text/css">
	.st0{fill:#001D26;}
	.st1{fill:#31C5F0;}
</style><g><g><path class="st0" d="M64,111.2C38,111.2,16.8,90,16.8,64S38,16.8,64,16.8S111.2,38,111.2,64S90,111.2,64,111.2z"/><path class="st1" d="M64,19.7c24.4,0,44.3,19.9,44.3,44.3S88.4,108.3,64,108.3S19.7,88.4,19.7,64S39.6,19.7,64,19.7 M64,14    c-27.6,0-50,22.4-50,50s22.4,50,50,50s50-22.4,50-50S91.6,14,64,14L64,14z"/></g><path class="st1" d="M80.5,59.3c-2.8,0-3.8,1.4-3.8,2.6c0,1.3,0.6,2.2,4.4,4.1c5.6,2.7,7.4,5.3,7.4,9.1c0,5.7-4.4,8.8-10.3,8.8   c-3.1,0-5.8-0.6-7.3-1.5c-0.2-0.1-0.3-0.3-0.3-0.6v-5.2c0-0.4,0.2-0.5,0.4-0.3c2.2,1.5,4.8,2.1,7.2,2.1c2.8,0,4-1.2,4-2.8   c0-1.3-0.8-2.4-4.4-4.3c-5.1-2.4-7.2-4.9-7.2-9c0-4.6,3.6-8.4,9.9-8.4c3.1,0,5.2,0.5,6.4,1c0.3,0.2,0.4,0.5,0.4,0.7v4.9   c0,0.3-0.2,0.5-0.5,0.4C85.2,59.9,82.9,59.3,80.5,59.3L80.5,59.3z M49.8,63.6c0.8,0.1,1.5,0.1,2.9,0.1c4.2,0,8.1-1.5,8.1-7.1   c0-4.5-2.8-6.8-7.6-6.8c-1.4,0-2.8,0.1-3.4,0.1V63.6z M43.5,44.6c0-0.2,0.5-0.4,0.8-0.4c2.3-0.1,5.7-0.2,9.2-0.2   c9.9,0,13.7,5.4,13.7,12.4c0,9.1-6.6,13-14.6,13c-1.4,0-1.8-0.1-2.8-0.1V83c0,0.3-0.1,0.4-0.4,0.4h-5.5c-0.3,0-0.4-0.1-0.4-0.4   L43.5,44.6L43.5,44.6z"/></g></svg>