<?xml version="1.0" standalone="no"?>
<!DOCTYPE svg PUBLIC "-//W3C//DTD SVG 20010904//EN"
 "http://www.w3.org/TR/2001/REC-SVG-20010904/DTD/svg10.dtd">
<svg version="1.0" xmlns="http://www.w3.org/2000/svg"
 width="500.000000pt" height="500.000000pt" viewBox="0 0 500.000000 500.000000"
 preserveAspectRatio="xMidYMid meet">
<metadata>
Created by potrace 1.11, written by Peter Selinger 2001-2013
</metadata>
<g transform="translate(0.000000,500.000000) scale(0.100000,-0.100000)"
fill="#000000" stroke="none">
<path d="M1713 3831 l-773 -446 0 -202 c0 -196 1 -203 20 -203 19 0 20 8 22
191 l3 191 754 435 c415 239 762 432 770 430 9 -2 353 -199 766 -436 412 -237
755 -429 763 -426 8 3 12 11 10 17 -5 15 -1534 898 -1551 897 -7 -1 -360 -202
-784 -448z"/>
<path d="M2220 3464 c0 -49 -2 -55 -15 -44 -18 15 -30 7 -22 -15 7 -18 38 -20
55 -3 18 18 16 118 -3 118 -12 0 -15 -13 -15 -56z"/>
<path d="M2290 3474 c0 -58 14 -84 46 -84 29 0 44 31 44 91 0 27 -4 39 -14 39
-11 0 -16 -15 -18 -52 -4 -74 -28 -77 -28 -4 0 43 -3 56 -15 56 -11 0 -15 -12
-15 -46z"/>
<path d="M2420 3455 c0 -69 17 -90 22 -27 l3 37 20 -37 c29 -59 45 -49 45 27
0 51 -3 65 -15 65 -10 0 -15 -11 -16 -37 l-1 -38 -15 38 c-25 60 -43 48 -43
-28z"/>
<path d="M2560 3455 c0 -37 4 -65 10 -65 6 0 10 28 10 65 0 37 -4 65 -10 65
-6 0 -10 -28 -10 -65z"/>
<path d="M2641 3506 c-18 -21 -10 -97 12 -110 28 -18 52 4 55 53 3 46 -10 71
-38 71 -10 0 -23 -6 -29 -14z m44 -52 c0 -28 -4 -39 -15 -39 -16 0 -26 45 -16
72 11 28 31 7 31 -33z"/>
<path d="M2760 3455 c0 -37 4 -65 10 -65 6 0 10 11 10 25 0 14 4 25 9 25 5 0
12 -11 15 -25 4 -14 13 -25 21 -25 11 0 12 5 5 26 -7 17 -7 32 0 45 16 29 -4
59 -40 59 l-30 0 0 -65z m50 25 c0 -11 -7 -20 -15 -20 -8 0 -15 9 -15 20 0 11
7 20 15 20 8 0 15 -9 15 -20z"/>
<path d="M2047 3474 c-14 -15 -6 -34 14 -34 14 0 19 5 17 17 -3 18 -20 27 -31
17z"/>
<path d="M2947 3474 c-14 -15 -6 -34 14 -34 14 0 19 5 17 17 -3 18 -20 27 -31
17z"/>
<path d="M3227 3071 c-14 -17 -28 -44 -32 -60 -6 -30 8 -71 25 -71 49 0 103
67 98 122 -3 29 -7 33 -34 36 -25 2 -37 -3 -57 -27z"/>
<path d="M4063 3036 c-87 -28 -209 -128 -233 -192 -18 -47 -12 -103 14 -129
l23 -23 -28 -21 c-16 -12 -44 -45 -62 -74 -42 -65 -93 -109 -121 -105 -37 5
-26 83 33 236 66 170 69 184 42 211 -50 50 -138 1 -230 -128 -35 -49 -38 -49
-16 2 20 49 20 107 0 107 -25 0 -73 -28 -85 -50 -6 -11 -37 -96 -70 -189 -69
-198 -77 -215 -122 -257 -41 -39 -71 -49 -87 -30 -11 12 -2 49 45 193 31 98
58 196 58 218 1 34 -2 40 -28 49 -27 10 -31 7 -75 -40 -25 -28 -52 -62 -60
-77 -13 -24 -12 -29 3 -46 17 -18 16 -24 -19 -131 -46 -144 -53 -192 -31 -225
39 -59 132 -71 197 -24 18 12 48 25 68 28 34 6 39 12 99 126 63 121 197 330
226 354 23 19 20 3 -14 -86 -64 -166 -71 -283 -17 -317 60 -39 126 -27 189 36
39 39 40 39 60 21 16 -14 36 -18 97 -18 98 1 153 27 244 115 58 57 67 71 67
101 0 19 -6 43 -13 53 -12 16 -19 11 -81 -59 -94 -104 -179 -145 -231 -111
-14 9 -25 21 -25 27 0 20 47 72 113 126 71 57 82 83 44 107 -13 9 -26 6 -60
-12 -88 -47 -89 -23 -1 66 63 64 66 66 75 45 10 -27 20 -28 58 -8 27 13 61 68
61 97 -1 39 -45 54 -107 34z"/>
<path d="M1375 2895 c-198 -50 -340 -120 -441 -220 -83 -81 -106 -132 -84
-185 28 -69 94 -76 163 -19 46 38 49 61 7 53 -22 -5 -31 -2 -36 10 -13 34 121
143 263 215 191 96 383 78 383 -36 0 -83 -120 -227 -233 -282 -76 -37 -137
-50 -137 -29 0 8 27 83 61 168 73 186 79 210 52 210 -50 0 -84 -22 -108 -71
-59 -116 -252 -599 -299 -748 -23 -72 -25 -87 -13 -99 11 -11 22 -11 54 -3 23
6 45 17 51 24 6 7 45 107 88 222 42 116 78 211 79 213 2 2 18 -4 36 -13 108
-57 368 103 464 286 46 89 58 174 30 225 -30 56 -108 88 -225 91 -59 1 -118
-3 -155 -12z"/>
<path d="M2915 2793 c-43 -22 -92 -70 -131 -128 -38 -56 -40 -55 -19 5 20 56
20 100 0 100 -32 0 -75 -32 -94 -68 -29 -58 -163 -470 -159 -489 2 -14 13 -18
43 -18 l40 0 53 105 c58 112 200 336 233 366 20 18 20 18 10 -10 -16 -40 -13
-92 5 -110 18 -19 20 -19 44 -6 23 12 80 157 82 207 2 59 -45 79 -107 46z"/>
<path d="M2445 2691 c-37 -23 -94 -83 -129 -136 -30 -45 -32 -42 -11 12 8 21
16 52 17 68 3 26 -1 30 -25 33 -49 6 -77 -37 -137 -208 -52 -151 -55 -157
-123 -233 -95 -106 -180 -147 -232 -113 -14 9 -25 21 -25 27 0 20 47 72 113
126 71 57 82 83 44 107 -13 9 -26 6 -60 -12 -88 -47 -89 -23 -1 66 63 64 66
66 75 45 10 -27 20 -28 58 -8 34 17 65 78 57 110 -17 69 -183 11 -286 -101
-47 -51 -60 -80 -60 -135 0 -29 7 -47 24 -64 l24 -24 -24 -16 c-66 -43 -83
-133 -36 -186 24 -27 37 -33 85 -37 69 -5 144 17 207 62 39 28 49 31 79 24 18
-5 39 -7 46 -4 8 2 35 49 62 103 59 117 168 292 216 348 l35 40 -11 -42 c-15
-58 -1 -97 36 -101 25 -3 30 2 52 53 14 31 33 83 42 115 15 57 15 61 -2 80
-23 25 -70 26 -110 1z"/>
<path d="M4030 1802 l0 -197 -760 -438 c-417 -240 -764 -437 -769 -437 -5 0
-350 196 -765 435 -416 239 -760 435 -765 435 -11 0 -22 -28 -13 -33 612 -356
1531 -881 1543 -881 8 -1 362 199 787 444 l772 445 0 213 c0 182 -2 212 -15
212 -13 0 -15 -29 -15 -198z"/>
<path d="M1670 1595 c0 -65 0 -65 28 -65 39 0 52 17 52 65 0 48 -13 65 -52 65
-28 0 -28 0 -28 -65z m55 0 c0 -22 -5 -40 -12 -42 -9 -3 -13 9 -13 42 0 33 4
45 13 43 7 -3 12 -21 12 -43z"/>
<path d="M1790 1595 l0 -65 35 0 c19 0 35 5 35 10 0 6 -11 10 -25 10 -18 0
-25 5 -25 20 0 13 7 20 20 20 11 0 20 5 20 10 0 6 -9 10 -20 10 -11 0 -20 7
-20 15 0 9 9 15 25 15 14 0 25 5 25 10 0 6 -16 10 -35 10 l-35 0 0 -65z"/>
<path d="M1880 1649 c0 -30 33 -119 44 -119 7 0 18 24 26 53 7 28 15 58 17 65
3 6 -2 12 -10 12 -11 0 -18 -15 -23 -47 l-8 -48 -13 48 c-13 42 -33 65 -33 36z"/>
<path d="M2000 1595 l0 -65 35 0 c19 0 35 5 35 10 0 6 -11 10 -25 10 -18 0
-25 5 -25 20 0 13 7 20 20 20 11 0 20 5 20 10 0 6 -9 10 -20 10 -11 0 -20 7
-20 15 0 9 9 15 25 15 14 0 25 5 25 10 0 6 -16 10 -35 10 l-35 0 0 -65z"/>
<path d="M2100 1595 l0 -65 35 0 c19 0 35 5 35 10 0 6 -11 10 -25 10 -24 0
-25 3 -25 55 0 30 -4 55 -10 55 -6 0 -10 -28 -10 -65z"/>
<path d="M2204 1635 c-24 -36 -12 -93 22 -101 35 -9 54 12 54 60 0 67 -44 90
-76 41z m51 -16 c9 -28 -3 -71 -18 -66 -13 4 -22 51 -13 73 8 20 24 17 31 -7z"/>
<path d="M2320 1595 c0 -37 4 -65 10 -65 6 0 10 11 10 25 0 18 5 25 19 25 30
0 46 26 33 55 -9 19 -19 25 -42 25 l-30 0 0 -65z m50 25 c0 -11 -7 -20 -15
-20 -8 0 -15 9 -15 20 0 11 7 20 15 20 8 0 15 -9 15 -20z"/>
<path d="M2430 1596 c0 -37 4 -66 10 -66 6 0 10 11 10 24 0 18 6 26 21 28 56
8 48 70 -10 76 l-31 3 0 -65z m50 24 c0 -11 -7 -20 -15 -20 -8 0 -15 9 -15 20
0 11 7 20 15 20 8 0 15 -9 15 -20z"/>
<path d="M2540 1595 l0 -65 35 0 c38 0 48 17 13 22 -29 4 -35 28 -9 35 27 7
27 23 0 23 -27 0 -19 24 9 28 35 5 25 22 -13 22 l-35 0 0 -65z"/>
<path d="M2642 1604 c2 -41 8 -60 21 -68 32 -20 52 4 55 68 2 32 -1 56 -7 56
-5 0 -11 -24 -13 -52 -2 -39 -7 -53 -18 -53 -11 0 -16 14 -18 53 -2 28 -8 52
-13 52 -6 0 -9 -24 -7 -56z"/>
<path d="M2767 1653 c-17 -16 -6 -54 18 -65 27 -12 31 -23 14 -34 -6 -3 -15
-1 -19 6 -4 7 -13 11 -19 9 -8 -3 -8 -10 2 -23 10 -14 21 -17 40 -12 37 9 38
52 2 68 -14 6 -25 17 -25 25 0 16 12 17 28 1 17 -17 28 -2 12 17 -13 15 -42
20 -53 8z"/>
<path d="M2860 1595 l0 -65 35 0 c19 0 35 5 35 10 0 6 -9 10 -20 10 -13 0 -20
7 -20 20 0 13 7 20 20 20 11 0 20 5 20 10 0 6 -9 10 -20 10 -11 0 -20 7 -20
15 0 8 9 15 20 15 11 0 20 5 20 10 0 6 -16 10 -35 10 l-35 0 0 -65z"/>
<path d="M3014 1634 c3 -16 8 -46 12 -66 7 -43 34 -53 34 -14 0 14 5 28 10 31
6 4 10 -7 10 -24 0 -39 26 -42 34 -3 16 79 18 102 8 102 -12 0 -22 -23 -23
-53 -1 -14 -5 -8 -11 16 -6 20 -14 37 -19 37 -4 0 -12 -17 -16 -37 l-7 -38 -6
34 c-3 19 -11 36 -19 39 -10 3 -12 -3 -7 -24z"/>
<path d="M3160 1595 l0 -65 35 0 c38 0 48 17 13 22 -29 4 -35 28 -9 35 27 7
27 23 0 23 -27 0 -19 24 9 28 35 5 25 22 -13 22 l-35 0 0 -65z"/>
<path d="M3260 1595 c0 -65 0 -65 29 -65 38 0 50 17 47 65 -2 53 -11 65 -47
65 l-29 0 0 -65z m50 30 c0 -8 -7 -15 -15 -15 -16 0 -20 12 -8 23 11 12 23 8
23 -8z m0 -56 c0 -24 -23 -21 -28 4 -2 10 3 17 12 17 10 0 16 -9 16 -21z"/>
<path d="M1490 1600 c0 -15 5 -20 18 -18 9 2 17 10 17 18 0 8 -8 16 -17 18
-13 2 -18 -3 -18 -18z"/>
<path d="M3487 1614 c-14 -15 -6 -34 14 -34 14 0 19 5 17 17 -3 18 -20 27 -31
17z"/>
</g>
</svg>
